<mxfile host="65bd71144e">
    <diagram id="4GKb6l3Mye8yo9pIoZ_z" name="PC">
        <mxGraphModel dx="906" dy="544" grid="1" gridSize="10" guides="1" tooltips="1" connect="1" arrows="1" fold="1" page="1" pageScale="1" pageWidth="827" pageHeight="1169" math="0" shadow="0">
            <root>
                <mxCell id="0"/>
                <mxCell id="1" parent="0"/>
                <mxCell id="8gBcUf-JYufR0FvvMd_q-1" value="" style="rounded=0;whiteSpace=wrap;html=1;fillColor=#E6E6E6;fontColor=#333333;strokeColor=#666666;" vertex="1" parent="1">
                    <mxGeometry x="40" y="40" width="760" height="480" as="geometry"/>
                </mxCell>
                <mxCell id="8gBcUf-JYufR0FvvMd_q-2" value="" style="rounded=0;whiteSpace=wrap;html=1;strokeColor=none;strokeWidth=2;fillColor=#f5f5f5;fontColor=#333333;" vertex="1" parent="1">
                    <mxGeometry x="42" y="140" width="110" height="370" as="geometry"/>
                </mxCell>
                <mxCell id="8gBcUf-JYufR0FvvMd_q-3" value="Home" style="text;html=1;align=center;verticalAlign=middle;whiteSpace=wrap;rounded=0;strokeWidth=2;fontColor=#1E0200;" vertex="1" parent="1">
                    <mxGeometry x="73" y="210" width="60" height="30" as="geometry"/>
                </mxCell>
                <mxCell id="8gBcUf-JYufR0FvvMd_q-4" value="" style="group" vertex="1" connectable="0" parent="1">
                    <mxGeometry x="40" y="40" width="760" height="80" as="geometry"/>
                </mxCell>
                <mxCell id="8gBcUf-JYufR0FvvMd_q-5" value="" style="rounded=0;whiteSpace=wrap;html=1;fillColor=#f5f5f5;fontColor=#333333;strokeColor=none;strokeWidth=0.5;" vertex="1" parent="8gBcUf-JYufR0FvvMd_q-4">
                    <mxGeometry width="760" height="30" as="geometry"/>
                </mxCell>
                <mxCell id="8gBcUf-JYufR0FvvMd_q-6" value="" style="ellipse;whiteSpace=wrap;html=1;aspect=fixed;strokeColor=none;fillColor=#BA0C00;gradientColor=none;" vertex="1" parent="8gBcUf-JYufR0FvvMd_q-4">
                    <mxGeometry x="7" y="7" width="15" height="15" as="geometry"/>
                </mxCell>
                <mxCell id="8gBcUf-JYufR0FvvMd_q-7" value="" style="ellipse;whiteSpace=wrap;html=1;aspect=fixed;strokeColor=none;fillColor=#D4E302;gradientColor=none;" vertex="1" parent="8gBcUf-JYufR0FvvMd_q-4">
                    <mxGeometry x="27" y="7" width="15" height="15" as="geometry"/>
                </mxCell>
                <mxCell id="8gBcUf-JYufR0FvvMd_q-8" value="" style="ellipse;whiteSpace=wrap;html=1;aspect=fixed;strokeColor=none;fillColor=#09D940;gradientColor=none;" vertex="1" parent="8gBcUf-JYufR0FvvMd_q-4">
                    <mxGeometry x="48" y="7.5" width="15" height="15" as="geometry"/>
                </mxCell>
                <mxCell id="8gBcUf-JYufR0FvvMd_q-9" value="" style="rounded=1;whiteSpace=wrap;html=1;fillColor=#dae8fc;strokeColor=#F0F0F0;strokeWidth=0.5;" vertex="1" parent="8gBcUf-JYufR0FvvMd_q-4">
                    <mxGeometry x="232" y="5" width="130" height="25" as="geometry"/>
                </mxCell>
                <mxCell id="8gBcUf-JYufR0FvvMd_q-10" value="" style="rounded=1;whiteSpace=wrap;html=1;fillColor=#dae8fc;strokeColor=#6c8ebf;strokeWidth=0.5;" vertex="1" parent="8gBcUf-JYufR0FvvMd_q-4">
                    <mxGeometry x="102" y="5.5" width="130" height="25" as="geometry"/>
                </mxCell>
                <mxCell id="8gBcUf-JYufR0FvvMd_q-11" value="" style="rounded=1;whiteSpace=wrap;html=1;fillColor=#dae8fc;strokeColor=#6c8ebf;strokeWidth=0.5;" vertex="1" parent="8gBcUf-JYufR0FvvMd_q-4">
                    <mxGeometry x="362" y="5" width="130" height="25" as="geometry"/>
                </mxCell>
                <mxCell id="8gBcUf-JYufR0FvvMd_q-12" value="" style="verticalLabelPosition=bottom;verticalAlign=top;html=1;shape=mxgraph.basic.x;strokeWidth=0.5;fillColor=#808080;strokeColor=#666666;" vertex="1" parent="8gBcUf-JYufR0FvvMd_q-4">
                    <mxGeometry x="350" y="14" width="8" height="7" as="geometry"/>
                </mxCell>
                <mxCell id="8gBcUf-JYufR0FvvMd_q-13" value="" style="rounded=0;whiteSpace=wrap;html=1;fillColor=#f5f5f5;fontColor=#333333;strokeColor=none;strokeWidth=0.5;" vertex="1" parent="8gBcUf-JYufR0FvvMd_q-4">
                    <mxGeometry y="30.5" width="760" height="49.5" as="geometry"/>
                </mxCell>
                <mxCell id="8gBcUf-JYufR0FvvMd_q-14" value="" style="rounded=1;whiteSpace=wrap;html=1;strokeColor=#6c8ebf;strokeWidth=0.5;fillColor=none;" vertex="1" parent="8gBcUf-JYufR0FvvMd_q-4">
                    <mxGeometry x="102" y="40.629999999999995" width="608" height="27.37" as="geometry"/>
                </mxCell>
                <mxCell id="8gBcUf-JYufR0FvvMd_q-15" value="" style="verticalLabelPosition=bottom;verticalAlign=top;html=1;shape=mxgraph.basic.partConcEllipse;startAngle=0.25;endAngle=0.1;arcWidth=0.5;rounded=1;strokeColor=#666666;strokeWidth=0.5;fillColor=none;" vertex="1" parent="8gBcUf-JYufR0FvvMd_q-4">
                    <mxGeometry x="70" y="44.31999999999999" width="20" height="20" as="geometry"/>
                </mxCell>
                <mxCell id="8gBcUf-JYufR0FvvMd_q-16" value="" style="endArrow=open;html=1;strokeColor=#CCCCCC;strokeWidth=3;startSize=0;endFill=0;" edge="1" parent="8gBcUf-JYufR0FvvMd_q-4">
                    <mxGeometry width="50" height="50" relative="1" as="geometry">
                        <mxPoint x="42" y="53.97000000000003" as="sourcePoint"/>
                        <mxPoint x="62" y="53.97" as="targetPoint"/>
                    </mxGeometry>
                </mxCell>
                <mxCell id="8gBcUf-JYufR0FvvMd_q-17" value="" style="endArrow=open;html=1;strokeColor=#CCCCCC;strokeWidth=3;startSize=0;endFill=0;" edge="1" parent="1">
                    <mxGeometry width="50" height="50" relative="1" as="geometry">
                        <mxPoint x="72.99999999999989" y="93.97000000000003" as="sourcePoint"/>
                        <mxPoint x="52.999999999999886" y="93.97000000000003" as="targetPoint"/>
                    </mxGeometry>
                </mxCell>
                <mxCell id="8gBcUf-JYufR0FvvMd_q-18" value="Form" style="text;html=1;align=center;verticalAlign=middle;whiteSpace=wrap;rounded=0;strokeWidth=2;fontColor=#1E0200;" vertex="1" parent="1">
                    <mxGeometry x="73" y="242" width="60" height="30" as="geometry"/>
                </mxCell>
                <mxCell id="8gBcUf-JYufR0FvvMd_q-19" value="Setting" style="text;html=1;align=center;verticalAlign=middle;whiteSpace=wrap;rounded=0;strokeWidth=2;fontColor=#1E0200;" vertex="1" parent="1">
                    <mxGeometry x="74" y="410" width="60" height="30" as="geometry"/>
                </mxCell>
                <mxCell id="8gBcUf-JYufR0FvvMd_q-20" value="Logout" style="text;html=1;align=center;verticalAlign=middle;whiteSpace=wrap;rounded=0;strokeWidth=2;fontColor=#1E0200;" vertex="1" parent="1">
                    <mxGeometry x="73" y="450" width="60" height="30" as="geometry"/>
                </mxCell>
                <mxCell id="8gBcUf-JYufR0FvvMd_q-21" value="" style="rounded=0;whiteSpace=wrap;html=1;strokeColor=none;strokeWidth=2;fillColor=#f5f5f5;fontColor=#333333;" vertex="1" parent="1">
                    <mxGeometry x="150" y="140" width="650" height="40" as="geometry"/>
                </mxCell>
                <mxCell id="8gBcUf-JYufR0FvvMd_q-22" value="" style="rounded=0;whiteSpace=wrap;html=1;strokeColor=#666666;strokeWidth=0.5;fillColor=#FFFFFF;gradientColor=default;" vertex="1" parent="1">
                    <mxGeometry x="200" y="200" width="550" height="300" as="geometry"/>
                </mxCell>
                <mxCell id="8gBcUf-JYufR0FvvMd_q-42" value="List" style="text;html=1;align=center;verticalAlign=middle;whiteSpace=wrap;rounded=0;strokeWidth=2;fontColor=#1E0200;" vertex="1" parent="1">
                    <mxGeometry x="73" y="277" width="60" height="30" as="geometry"/>
                </mxCell>
                <mxCell id="8gBcUf-JYufR0FvvMd_q-43" value="" style="shape=actor;whiteSpace=wrap;html=1;rounded=1;strokeColor=#0e8088;strokeWidth=0.5;fontSize=10;fillColor=#b0e3e6;" vertex="1" parent="1">
                    <mxGeometry x="755" y="145" width="25" height="30" as="geometry"/>
                </mxCell>
                <mxCell id="3wR_mOWPR197NzGoEdw1-3" value="" style="rounded=0;whiteSpace=wrap;html=1;strokeWidth=0.5;fontSize=10;gradientColor=#b3b3b3;gradientDirection=west;perimeterSpacing=8;fillColor=#f5f5f5;strokeColor=none;" vertex="1" parent="1">
                    <mxGeometry x="290" y="240" width="340" height="2" as="geometry"/>
                </mxCell>
                <mxCell id="3wR_mOWPR197NzGoEdw1-9" value="" style="ellipse;whiteSpace=wrap;html=1;aspect=fixed;strokeColor=none;fillColor=#FFFFFF;gradientColor=none;" vertex="1" parent="1">
                    <mxGeometry x="655" y="233.5" width="15" height="15" as="geometry"/>
                </mxCell>
                <mxCell id="3wR_mOWPR197NzGoEdw1-14" value="" style="verticalLabelPosition=bottom;verticalAlign=top;html=1;shape=mxgraph.basic.tick;fillColor=#33FF33;" vertex="1" parent="1">
                    <mxGeometry x="275.8666666666667" y="236.23666666666668" width="12.266666666666667" height="12.266666666666667" as="geometry"/>
                </mxCell>
                <mxCell id="3wR_mOWPR197NzGoEdw1-4" value="" style="ellipse;whiteSpace=wrap;html=1;aspect=fixed;strokeColor=#33FF33;fillColor=none;fontColor=#ffffff;strokeWidth=3;" vertex="1" parent="1">
                    <mxGeometry x="272" y="232" width="20" height="20" as="geometry"/>
                </mxCell>
                <mxCell id="3wR_mOWPR197NzGoEdw1-20" value="" style="ellipse;whiteSpace=wrap;html=1;aspect=fixed;strokeColor=#999999;fillColor=none;fontColor=#ffffff;strokeWidth=3;" vertex="1" parent="1">
                    <mxGeometry x="356" y="232" width="20" height="20" as="geometry"/>
                </mxCell>
                <mxCell id="3wR_mOWPR197NzGoEdw1-22" value="" style="ellipse;whiteSpace=wrap;html=1;aspect=fixed;strokeColor=#999999;fillColor=none;fontColor=#ffffff;strokeWidth=3;" vertex="1" parent="1">
                    <mxGeometry x="442" y="231" width="20" height="20" as="geometry"/>
                </mxCell>
                <mxCell id="3wR_mOWPR197NzGoEdw1-23" value="" style="ellipse;whiteSpace=wrap;html=1;aspect=fixed;strokeColor=#999999;fillColor=none;fontColor=#ffffff;strokeWidth=3;" vertex="1" parent="1">
                    <mxGeometry x="530" y="231" width="20" height="20" as="geometry"/>
                </mxCell>
                <mxCell id="3wR_mOWPR197NzGoEdw1-24" value="" style="ellipse;whiteSpace=wrap;html=1;aspect=fixed;strokeColor=#999999;fillColor=none;fontColor=#ffffff;strokeWidth=3;" vertex="1" parent="1">
                    <mxGeometry x="620" y="232" width="20" height="20" as="geometry"/>
                </mxCell>
                <mxCell id="3wR_mOWPR197NzGoEdw1-26" value="&lt;font size=&quot;1&quot; color=&quot;#000000&quot;&gt;&lt;b style=&quot;font-size: 8px;&quot;&gt;Next&lt;/b&gt;&lt;/font&gt;" style="shape=singleArrow;whiteSpace=wrap;html=1;strokeColor=#6c8ebf;strokeWidth=1;fillColor=#dae8fc;gradientColor=#7ea6e0;gradientDirection=east;opacity=40;arrowWidth=0.4666666666666667;arrowSize=0.525;" vertex="1" parent="1">
                    <mxGeometry x="708" y="349" width="30" height="30" as="geometry"/>
                </mxCell>
                <mxCell id="3wR_mOWPR197NzGoEdw1-28" value="&lt;b&gt;&lt;font color=&quot;#000000&quot;&gt;Back&lt;/font&gt;&lt;/b&gt;" style="shape=singleArrow;direction=west;whiteSpace=wrap;html=1;strokeColor=#B09500;strokeWidth=1;fontSize=8;fillColor=#e3c800;gradientDirection=west;arrowWidth=0.4666666666666667;arrowSize=0.36666666666666664;fontColor=#000000;" vertex="1" parent="1">
                    <mxGeometry x="210" y="349" width="30" height="30" as="geometry"/>
                </mxCell>
                <mxCell id="3wR_mOWPR197NzGoEdw1-30" value="Department" style="text;html=1;strokeColor=none;fillColor=none;align=center;verticalAlign=middle;whiteSpace=wrap;rounded=0;strokeWidth=1;fontSize=8;fontColor=#000000;" vertex="1" parent="1">
                    <mxGeometry x="292" y="299" width="60" height="30" as="geometry"/>
                </mxCell>
                <mxCell id="3wR_mOWPR197NzGoEdw1-31" value="" style="rounded=0;whiteSpace=wrap;html=1;strokeWidth=0.5;fontSize=10;gradientColor=none;gradientDirection=west;perimeterSpacing=8;fillColor=#E6E6E6;strokeColor=none;" vertex="1" parent="1">
                    <mxGeometry x="292" y="324" width="340" height="2" as="geometry"/>
                </mxCell>
                <mxCell id="3wR_mOWPR197NzGoEdw1-35" value="Name" style="text;html=1;strokeColor=none;fillColor=none;align=center;verticalAlign=middle;whiteSpace=wrap;rounded=0;strokeWidth=1;fontSize=8;fontColor=#000000;" vertex="1" parent="1">
                    <mxGeometry x="290" y="329" width="60" height="30" as="geometry"/>
                </mxCell>
                <mxCell id="3wR_mOWPR197NzGoEdw1-36" value="" style="group" vertex="1" connectable="0" parent="1">
                    <mxGeometry x="424" y="298" width="116" height="22" as="geometry"/>
                </mxCell>
                <mxCell id="3wR_mOWPR197NzGoEdw1-33" value="" style="rounded=1;whiteSpace=wrap;html=1;strokeColor=#999999;strokeWidth=1;fontSize=8;fontColor=#000000;fillColor=#E6E6E6;gradientColor=none;gradientDirection=west;" vertex="1" parent="3wR_mOWPR197NzGoEdw1-36">
                    <mxGeometry width="116" height="22" as="geometry"/>
                </mxCell>
                <mxCell id="3wR_mOWPR197NzGoEdw1-34" value="" style="triangle;whiteSpace=wrap;html=1;strokeColor=#999999;strokeWidth=1;fontSize=8;fontColor=#000000;fillColor=#E6E6E6;gradientColor=none;gradientDirection=west;rotation=90;" vertex="1" parent="3wR_mOWPR197NzGoEdw1-36">
                    <mxGeometry x="98" y="6.5" width="10" height="11" as="geometry"/>
                </mxCell>
                <mxCell id="3wR_mOWPR197NzGoEdw1-37" value="" style="group" vertex="1" connectable="0" parent="1">
                    <mxGeometry x="424" y="331" width="116" height="22" as="geometry"/>
                </mxCell>
                <mxCell id="3wR_mOWPR197NzGoEdw1-38" value="" style="rounded=1;whiteSpace=wrap;html=1;strokeColor=#999999;strokeWidth=1;fontSize=8;fontColor=#000000;fillColor=#E6E6E6;gradientColor=none;gradientDirection=west;" vertex="1" parent="3wR_mOWPR197NzGoEdw1-37">
                    <mxGeometry width="116" height="22" as="geometry"/>
                </mxCell>
                <mxCell id="3wR_mOWPR197NzGoEdw1-39" value="" style="triangle;whiteSpace=wrap;html=1;strokeColor=#999999;strokeWidth=1;fontSize=8;fontColor=#000000;fillColor=#E6E6E6;gradientColor=none;gradientDirection=west;rotation=90;" vertex="1" parent="3wR_mOWPR197NzGoEdw1-37">
                    <mxGeometry x="98" y="6.5" width="10" height="11" as="geometry"/>
                </mxCell>
                <mxCell id="3wR_mOWPR197NzGoEdw1-40" value="" style="rounded=0;whiteSpace=wrap;html=1;strokeWidth=0.5;fontSize=10;gradientColor=none;gradientDirection=west;perimeterSpacing=8;fillColor=#E6E6E6;strokeColor=none;" vertex="1" parent="1">
                    <mxGeometry x="290" y="360" width="340" height="2" as="geometry"/>
                </mxCell>
                <mxCell id="3wR_mOWPR197NzGoEdw1-41" value="Reason" style="text;html=1;strokeColor=none;fillColor=none;align=center;verticalAlign=middle;whiteSpace=wrap;rounded=0;strokeWidth=1;fontSize=8;fontColor=#000000;" vertex="1" parent="1">
                    <mxGeometry x="292" y="365" width="60" height="30" as="geometry"/>
                </mxCell>
                <mxCell id="3wR_mOWPR197NzGoEdw1-42" value="" style="group" vertex="1" connectable="0" parent="1">
                    <mxGeometry x="424" y="367" width="116" height="22" as="geometry"/>
                </mxCell>
                <mxCell id="3wR_mOWPR197NzGoEdw1-43" value="" style="rounded=1;whiteSpace=wrap;html=1;strokeColor=#999999;strokeWidth=1;fontSize=8;fontColor=#000000;fillColor=#E6E6E6;gradientColor=none;gradientDirection=west;" vertex="1" parent="3wR_mOWPR197NzGoEdw1-42">
                    <mxGeometry width="116" height="22" as="geometry"/>
                </mxCell>
                <mxCell id="3wR_mOWPR197NzGoEdw1-44" value="" style="triangle;whiteSpace=wrap;html=1;strokeColor=#999999;strokeWidth=1;fontSize=8;fontColor=#000000;fillColor=#E6E6E6;gradientColor=none;gradientDirection=west;rotation=90;" vertex="1" parent="3wR_mOWPR197NzGoEdw1-42">
                    <mxGeometry x="98" y="6.5" width="10" height="11" as="geometry"/>
                </mxCell>
                <mxCell id="3wR_mOWPR197NzGoEdw1-45" value="" style="rounded=0;whiteSpace=wrap;html=1;strokeWidth=0.5;fontSize=10;gradientColor=none;gradientDirection=west;perimeterSpacing=8;fillColor=#E6E6E6;strokeColor=none;" vertex="1" parent="1">
                    <mxGeometry x="290" y="395" width="340" height="2" as="geometry"/>
                </mxCell>
                <mxCell id="3wR_mOWPR197NzGoEdw1-46" value="Date" style="text;html=1;strokeColor=none;fillColor=none;align=center;verticalAlign=middle;whiteSpace=wrap;rounded=0;strokeWidth=1;fontSize=8;fontColor=#000000;" vertex="1" parent="1">
                    <mxGeometry x="292" y="398" width="60" height="30" as="geometry"/>
                </mxCell>
                <mxCell id="3wR_mOWPR197NzGoEdw1-47" value="" style="group" vertex="1" connectable="0" parent="1">
                    <mxGeometry x="425" y="400" width="116" height="22" as="geometry"/>
                </mxCell>
                <mxCell id="3wR_mOWPR197NzGoEdw1-48" value="" style="rounded=1;whiteSpace=wrap;html=1;strokeColor=#999999;strokeWidth=1;fontSize=8;fontColor=#000000;fillColor=#E6E6E6;gradientColor=none;gradientDirection=west;" vertex="1" parent="3wR_mOWPR197NzGoEdw1-47">
                    <mxGeometry x="-1" y="2" width="116" height="22" as="geometry"/>
                </mxCell>
                <mxCell id="3wR_mOWPR197NzGoEdw1-49" value="" style="triangle;whiteSpace=wrap;html=1;strokeColor=#999999;strokeWidth=1;fontSize=8;fontColor=#000000;fillColor=#E6E6E6;gradientColor=none;gradientDirection=west;rotation=90;" vertex="1" parent="3wR_mOWPR197NzGoEdw1-47">
                    <mxGeometry x="98" y="6.5" width="10" height="11" as="geometry"/>
                </mxCell>
                <mxCell id="ZQRTh7QDgvBxOQ2rAHpR-13" value="" style="group" vertex="1" connectable="0" parent="1">
                    <mxGeometry x="54" y="214" width="20" height="18" as="geometry"/>
                </mxCell>
                <mxCell id="ZQRTh7QDgvBxOQ2rAHpR-10" value="" style="whiteSpace=wrap;html=1;aspect=fixed;strokeWidth=1;fontSize=8;gradientDirection=west;fillColor=#B3B3B3;fontColor=#ffffff;strokeColor=none;" vertex="1" parent="ZQRTh7QDgvBxOQ2rAHpR-13">
                    <mxGeometry x="5" y="8" width="10" height="10" as="geometry"/>
                </mxCell>
                <mxCell id="ZQRTh7QDgvBxOQ2rAHpR-9" value="" style="triangle;whiteSpace=wrap;html=1;strokeWidth=1;fontSize=8;gradientDirection=west;rotation=-90;strokeColor=none;fillColor=#B3B3B3;" vertex="1" parent="ZQRTh7QDgvBxOQ2rAHpR-13">
                    <mxGeometry x="5" y="-5" width="10" height="20" as="geometry"/>
                </mxCell>
                <mxCell id="ZQRTh7QDgvBxOQ2rAHpR-16" value="&lt;font color=&quot;#000000&quot;&gt;ー&lt;br&gt;&lt;/font&gt;" style="rounded=1;whiteSpace=wrap;html=1;strokeColor=none;strokeWidth=1;fontSize=8;fillColor=#B3B3B3;gradientDirection=west;" vertex="1" parent="1">
                    <mxGeometry x="57" y="250" width="14" height="22" as="geometry"/>
                </mxCell>
                <mxCell id="ZQRTh7QDgvBxOQ2rAHpR-18" value="" style="shape=image;html=1;verticalLabelPosition=bottom;verticalAlign=top;imageAspect=1;aspect=fixed;image=img/clipart/Gear_128x128.png;strokeColor=#999999;strokeWidth=1;fontSize=8;fontColor=#000000;fillColor=#B3B3B3;gradientColor=none;gradientDirection=west;" vertex="1" parent="1">
                    <mxGeometry x="57.95" y="415" width="17.05" height="20" as="geometry"/>
                </mxCell>
                <mxCell id="ZQRTh7QDgvBxOQ2rAHpR-25" value="" style="group" vertex="1" connectable="0" parent="1">
                    <mxGeometry x="150" y="149" width="21.870000000000005" height="22" as="geometry"/>
                </mxCell>
                <mxCell id="ZQRTh7QDgvBxOQ2rAHpR-22" value="" style="line;strokeWidth=2;html=1;strokeColor=#999999;fontSize=8;fontColor=#000000;fillColor=#B3B3B3;gradientColor=none;gradientDirection=west;" vertex="1" parent="ZQRTh7QDgvBxOQ2rAHpR-25">
                    <mxGeometry y="6" width="21.87" height="10" as="geometry"/>
                </mxCell>
                <mxCell id="ZQRTh7QDgvBxOQ2rAHpR-23" value="" style="line;strokeWidth=2;html=1;strokeColor=#999999;fontSize=8;fontColor=#000000;fillColor=#B3B3B3;gradientColor=none;gradientDirection=west;" vertex="1" parent="ZQRTh7QDgvBxOQ2rAHpR-25">
                    <mxGeometry width="21.87" height="10" as="geometry"/>
                </mxCell>
                <mxCell id="ZQRTh7QDgvBxOQ2rAHpR-24" value="" style="line;strokeWidth=2;html=1;strokeColor=#999999;fontSize=8;fontColor=#000000;fillColor=#B3B3B3;gradientColor=none;gradientDirection=west;" vertex="1" parent="ZQRTh7QDgvBxOQ2rAHpR-25">
                    <mxGeometry y="12" width="21.87" height="10" as="geometry"/>
                </mxCell>
            </root>
        </mxGraphModel>
    </diagram>
    <diagram id="1Yg3ZvlZ3RPMHgS_36pp" name="Mobile">
        <mxGraphModel dx="906" dy="544" grid="1" gridSize="10" guides="1" tooltips="1" connect="1" arrows="1" fold="1" page="1" pageScale="1" pageWidth="827" pageHeight="1169" math="0" shadow="0">
            <root>
                <mxCell id="0"/>
                <mxCell id="1" parent="0"/>
            </root>
        </mxGraphModel>
    </diagram>
</mxfile>